<?xml version="1.0" standalone="no"?><!DOCTYPE svg PUBLIC "-//W3C//DTD SVG 1.1//EN" "http://www.w3.org/Graphics/SVG/1.1/DTD/svg11.dtd"><svg t="1497536203402" class="icon" style="" viewBox="0 0 1261 1024" version="1.1" xmlns="http://www.w3.org/2000/svg" p-id="10135" xmlns:xlink="http://www.w3.org/1999/xlink" width="369.43359375" height="300"><defs><style type="text/css"></style></defs><path d="M927.192615 380.770462c-53.563077-126.188308-150.921846-93.735385-195.268923-62.385231C697.737846 342.331077 681.511385 344.930462 679.936 316.731077c-0.787692-12.918154-1.024-25.206154-1.024-25.206154L678.912 249.619692l47.182769 0L726.094769 207.163077l-55.138462 0L670.956308 151.867077 659.692308 151.867077 633.304615 151.867077 622.198154 151.867077 622.198154 207.163077 566.980923 207.163077l0 42.456615 47.261538 0 0 41.905231c0 0-0.393846 12.288-1.181538 25.127385-1.575385 28.278154-17.880615 25.678769-51.751385 1.654154C516.804923 287.113846 419.446154 254.582154 365.725538 380.770462c-79.556923-13.784615-185.107692 74.121846-93.499077 169.826462 51.436308 45.528615 134.301538 113.585231 144.777846 228.115692 158.798769 0 272.699077 0 458.988308 0 10.476308-114.451692 93.499077-182.508308 144.777846-228.115692C1112.379077 454.892308 1006.670769 366.985846 927.192615 380.770462zM490.574769 650.555077 435.121231 659.298462 431.419077 649.294769c-24.891077-56.083692-58.761846-43.323077-97.358769-124.140308C295.620923 444.179692 371.554462 425.511385 371.554462 425.511385c0 57.265231 27.569231 80.896 79.872 133.041231C503.729231 611.012923 490.574769 650.555077 490.574769 650.555077zM621.252923 646.537846c0 0 0 0-70.262154-1.024 5.041231-50.254769-30.247385-63.803077-77.745231-171.716923C422.203077 358.4 595.889231 384.787692 595.889231 384.787692 582.183385 419.052308 557.213538 467.101538 600.694154 541.538462c0.157538 0.393846 0.393846 0.866462 0.787692 1.339077C636.849231 605.971692 621.252923 646.537846 621.252923 646.537846zM671.822769 646.537846c0 0-15.911385-40.723692 19.771077-103.660308 42.456615-74.752 19.377231-123.510154 5.513846-158.089846 0 0 173.686154-26.387692 122.643692 89.009231-47.576615 107.992615-82.786462 121.462154-77.824 171.716923C671.822769 646.537846 671.822769 646.537846 671.822769 646.537846zM958.857846 525.154462c-38.281846 80.817231-72.388923 68.056615-97.201231 124.140308L857.954462 659.298462l-55.532308-8.743385c0 0-13.075692-39.542154 39.227077-91.923692 52.145231-52.302769 79.950769-75.854769 79.950769-133.12C921.363692 425.511385 997.376 444.179692 958.857846 525.154462z" p-id="10136" fill="#ffffff"></path><path d="M872.054154 816.285538 424.802462 816.285538 423.936 816.285538 382.109538 915.219692 424.802462 915.219692 872.054154 915.219692 914.668308 915.219692 872.841846 816.285538Z" p-id="10137" fill="#ffffff"></path></svg>